<?xml version="1.0" encoding="UTF-8" standalone="no"?>
<!-- Created with Inkscape (http://www.inkscape.org/) -->

<svg
   xmlns:dc="http://purl.org/dc/elements/1.1/"
   xmlns:cc="http://creativecommons.org/ns#"
   xmlns:rdf="http://www.w3.org/1999/02/22-rdf-syntax-ns#"
   xmlns:svg="http://www.w3.org/2000/svg"
   xmlns="http://www.w3.org/2000/svg"
   xmlns:sodipodi="http://sodipodi.sourceforge.net/DTD/sodipodi-0.dtd"
   xmlns:inkscape="http://www.inkscape.org/namespaces/inkscape"
   width="98.689644mm"
   height="84.355873mm"
   viewBox="0 0 98.689644 84.355873"
   version="1.1"
   id="svg3756"
   sodipodi:docname="Logo_SpectrumWhite.svg"
   inkscape:version="0.92.3 (2405546, 2018-03-11)">
  <defs
     id="defs3750" />
  <sodipodi:namedview
     id="base"
     pagecolor="#ffffff"
     bordercolor="#666666"
     borderopacity="1.0"
     inkscape:pageopacity="0.0"
     inkscape:pageshadow="2"
     inkscape:zoom="0.7"
     inkscape:cx="568.43351"
     inkscape:cy="109.00719"
     inkscape:document-units="mm"
     inkscape:current-layer="layer1"
     showgrid="false"
     inkscape:window-width="1366"
     inkscape:window-height="705"
     inkscape:window-x="-8"
     inkscape:window-y="-8"
     inkscape:window-maximized="1"
     fit-margin-top="0"
     fit-margin-left="0"
     fit-margin-right="0"
     fit-margin-bottom="0" />
  <metadata
     id="metadata3753">
    <rdf:RDF>
      <cc:Work
         rdf:about="">
        <dc:format>image/svg+xml</dc:format>
        <dc:type
           rdf:resource="http://purl.org/dc/dcmitype/StillImage" />
        <dc:title></dc:title>
      </cc:Work>
    </rdf:RDF>
  </metadata>
  <g
     inkscape:label="Layer 1"
     inkscape:groupmode="layer"
     id="layer1"
     transform="translate(-47.039138,-85.110738)">
    <path
       style="fill:#ffffff;stroke-width:0.02645833"
       inkscape:connector-curvature="0"
       d="m 64.95143,169.32761 c -0.07938,-0.13229 -0.211667,-4.1275 -0.3175,-8.94291 -0.132292,-6.08542 -0.291042,-8.78417 -0.502709,-8.91646 -0.15875,-0.10583 -0.978958,-0.21167 -1.825625,-0.21167 -0.978958,0 -1.561041,-0.10583 -1.613958,-0.3175 -0.07937,-0.18521 -0.185208,-0.66146 -0.264583,-1.05833 -0.105834,-0.42333 -0.396875,-0.76729 -0.767292,-0.87313 -0.3175,-0.10583 -0.926042,-0.34395 -1.375833,-0.52916 -0.9525,-0.39688 -8.678334,-2.91042 -9.710209,-3.14854 -1.164166,-0.26459 -1.534583,-0.84667 -1.534583,-2.40771 0,-2.09021 0.238125,-2.24896 3.704167,-2.24896 1.5875,0 3.042708,-0.0794 3.280833,-0.15875 0.3175,-0.13229 0.423333,-0.52917 0.423333,-1.61396 0,-2.38125 0.07937,-2.46062 3.386667,-2.46062 1.878542,0 2.963333,-0.10584 3.175,-0.3175 0.343958,-0.34396 0.47625,-7.4348 0.15875,-8.25501 -0.07938,-0.23812 -0.370417,-0.42333 -0.608542,-0.42333 -1.031875,0 -1.084791,-0.37042 -1.084791,-8.33437 0,-5.63563 0.07938,-7.77875 0.3175,-8.01688 0.185208,-0.18521 0.687916,-0.3175 1.137708,-0.3175 1.11125,0 2.248958,-0.47625 7.937499,-3.175 0.87313,-0.42333 3.06917,-1.45521 4.89479,-2.32833 3.67771,-1.74625 5.76792,-2.72521 8.81063,-4.1275 4.33916,-2.010835 8.06979,-3.757085 13.546656,-6.37646 2.27542,-1.058334 4.259802,-2.010834 8.069802,-3.783542 6.2177,-2.883958 7.59354,-3.598333 8.46666,-4.28625 0.74084,-0.582083 1.27,-0.79375 2.09021,-0.79375 0.74083,0 1.16417,-0.132292 1.24354,-0.396875 0.10584,-0.264583 0.52917,-0.396875 1.32292,-0.396875 0.635,0 1.16417,0.05292 1.16417,0.132292 0,0.767291 -1.61396,2.301875 -5.02709,4.788958 -0.68791,0.502708 -3.62479,2.883958 -7.77875,6.323542 -0.89958,0.740833 -2.35479,1.931458 -3.28083,2.645833 -0.92604,0.740833 -3.651252,2.936877 -6.058962,4.894787 -2.40771,1.95792 -4.81542,3.9423 -5.371036,4.36563 -0.55563,0.44979 -1.87854,1.50812 -2.93688,2.38125 -1.08479,0.84667 -3.14854,2.51354 -4.60375,3.67771 -1.4552,1.16416 -2.69875,2.19604 -2.77812,2.27541 -0.0794,0.0794 -1.03188,0.84667 -2.11667,1.7198 -1.08479,0.87312 -2.19604,1.7727 -2.48708,2.01083 -0.84667,0.79375 -0.29104,1.00542 1.50812,0.58208 3.78355,-0.92604 4.8948,-1.19062 6.13834,-1.42875 0.74083,-0.13229 1.50812,-0.34396 1.71979,-0.42333 0.21167,-0.10583 1.05833,-0.3175 1.85208,-0.50271 0.79375,-0.18521 2.59292,-0.60854 3.96875,-0.97896 1.375836,-0.34396 3.704166,-0.89958 5.159376,-1.24354 2.88396,-0.635 4.841872,-1.27 5.053542,-1.61396 0.21167,-0.34396 2.01083,-0.26458 2.75167,0.10584 1.24354,0.635 0.9525,1.08479 -1.50813,2.24895 -1.27,0.60855 -2.857502,1.37584 -3.518962,1.74625 -0.66146,0.34396 -1.53458,0.82021 -1.98437,1.00542 -0.66146,0.3175 -13.387916,6.79979 -14.896036,7.62 -0.23813,0.10583 -1.03188,0.52917 -1.77271,0.87313 -3.30729,1.64041 -4.10104,2.16958 -4.33917,2.88395 -0.15875,0.42334 -0.44979,0.82021 -0.68792,0.89959 -0.3175,0.13229 -0.39687,0.58208 -0.39687,2.09021 0,2.14312 0.0794,2.24896 1.82562,2.24896 1.29646,0 1.61396,0.37041 1.61396,1.87854 0,2.16958 -0.37041,2.09021 9.55146,2.09021 5.529786,0 8.916456,-0.10584 9.260416,-0.26459 0.39687,-0.21166 0.50271,-0.55562 0.50271,-1.5875 0,-1.05833 0.10583,-1.34937 0.55562,-1.5875 0.37042,-0.21166 2.778132,-0.26458 7.540632,-0.21166 7.85812,0.0794 7.51416,0 7.51416,2.0902 0,1.00542 0.10584,1.27 0.52917,1.37584 0.68792,0.18521 1.05833,-0.50271 1.05833,-1.93146 0,-0.92604 0.10584,-1.11125 0.71438,-1.34938 0.79375,-0.29104 13.75833,-0.21166 14.36687,0.10584 0.42334,0.21166 1.40229,-1.08479 2.77813,-3.67771 0.37041,-0.68792 0.76729,-1.37584 0.89958,-1.53459 0.13229,-0.15875 0.68792,-1.11125 1.21708,-2.14312 0.55563,-1.00542 1.27,-2.32833 1.61396,-2.93688 l 0.58209,-1.08479 -5.02709,-0.15875 c -2.77812,-0.10583 -5.13291,-0.10583 -5.26521,-0.0265 -0.13229,0.0794 -0.23812,0.3175 -0.23812,0.52917 0,0.26458 0.37042,0.37042 1.40229,0.37042 0.76729,0 1.53458,0.13229 1.71979,0.3175 0.42334,0.42333 0.42334,4.23333 0.0265,4.6302 -0.23812,0.23813 -0.23812,0.52917 -0.0529,1.05834 0.37042,1.00541 0.39688,3.25437 0.0529,3.70417 -0.23812,0.26458 -1.74625,0.34396 -7.03791,0.34396 -3.99521,0 -6.93209,-0.10584 -7.22313,-0.26459 -0.42333,-0.21166 -0.50271,-0.55563 -0.47625,-1.93146 0,-0.89958 0.13229,-1.79917 0.26459,-1.95792 0.21166,-0.26458 1.95791,-0.34395 7.11729,-0.34395 4.52437,0 6.85271,-0.10584 6.85271,-0.26459 0,-0.18521 -2.3548,-0.26458 -6.90563,-0.26458 -6.50875,0.0265 -6.95854,0 -7.48771,-0.47625 -0.42333,-0.39688 -0.71437,-0.47625 -1.13771,-0.29104 -0.34395,0.10583 -0.60854,0.34396 -0.60854,0.50271 0,0.1852 -2.40771,0.26458 -7.14375,0.26458 -4.57729,0 -7.143752,0.10583 -7.143752,0.26458 0,0.15875 2.513542,0.26459 6.985002,0.26459 7.80521,0 7.32896,-0.1323 7.3025,1.87854 0,0.50271 0,1.19062 0,1.50812 0,0.34396 -0.0529,0.74084 -0.15875,0.87313 -0.0794,0.13229 -3.30729,0.23813 -7.35541,0.23813 -5.5298,0 -7.302502,-0.0794 -7.514172,-0.34396 -0.39688,-0.47626 -0.23813,-3.46605 0.21167,-4.02167 0.3175,-0.39688 0.3175,-0.47625 -0.0529,-0.68792 -0.23813,-0.13229 -0.50271,-0.52917 -0.58209,-0.87312 -0.0794,-0.37042 -0.39687,-0.71438 -0.66146,-0.82021 -0.26458,-0.0794 -0.58208,-0.42334 -0.66145,-0.74084 -0.26459,-1.00541 -0.15875,-3.25437 0.15875,-3.57187 0.23812,-0.23813 1.82562,-0.3175 5.529792,-0.3175 h 5.21229 l 0.42333,0.66146 c 0.42334,0.635 0.55563,0.66146 2.83104,0.66146 h 2.38125 l 0.26459,0.79375 c 0.39687,1.11125 1.29646,1.00541 1.66687,-0.18521 0.18521,-0.58209 0.3175,-0.60854 4.20688,-0.66146 3.36021,-0.0794 4.02166,-0.13229 4.02166,-0.47625 0,-0.21167 -0.29104,-0.44979 -0.66145,-0.52917 -1.13771,-0.23812 -2.91042,-1.32291 -3.20146,-1.95791 -0.3175,-0.68792 0.0529,-1.74625 0.635,-1.74625 11.05958,-0.0529 23.99771,0.0265 24.34166,0.15875 0.4498,0.15875 0.60855,1.08479 0.23813,1.56104 -0.10583,0.15875 -0.71438,0.68791 -1.34938,1.19062 -0.9525,0.74084 -1.42875,0.92604 -2.59291,0.97896 -0.79375,0.0265 -1.50813,0.10583 -1.61396,0.18521 -0.13229,0.0794 -0.55563,0.76729 -0.9525,1.53458 -0.39688,0.76729 -1.03188,1.93146 -1.40229,2.59292 -0.37042,0.66146 -1.24354,2.32833 -1.98438,3.70417 -0.74083,1.37583 -1.42875,2.64583 -1.53458,2.77812 -0.10583,0.15875 -0.60854,1.05834 -1.11125,2.0373 -0.92604,1.71979 -0.92604,1.74625 -0.37042,1.905 0.29104,0.0794 3.62479,0.15875 7.38188,0.15875 h 6.79979 v 2.06375 c 0,1.69333 -0.10583,2.16958 -0.47625,2.51354 -0.26458,0.26458 -0.60854,0.44979 -0.74083,0.44979 -0.21167,0 -5.87375,2.01083 -8.5725,3.04271 -0.50271,0.21166 -2.16959,0.82021 -3.70417,1.37583 -1.53458,0.52917 -2.93688,1.16417 -3.09563,1.40229 -0.26458,0.29104 -0.34395,2.59292 -0.3175,9.10167 0,4.78896 -0.10583,8.81062 -0.23812,8.94292 -0.10583,0.10583 -4.1275,0.1852 -8.94292,0.15875 l -8.70479,-0.0794 -0.13229,-8.46667 c -0.0794,-4.65667 -0.18521,-8.49313 -0.21167,-8.51959 -0.0265,-0.0529 -6.24416,-0.0794 -13.811252,-0.0794 -7.567076,0 -13.784786,0.0265 -13.811246,0.0794 -0.0265,0.0265 -0.10583,3.86292 -0.21166,8.51958 l -0.1323,8.46667 -8.78416,0.0794 c -4.81542,0.0265 -8.837086,-0.0265 -8.890002,-0.13229 z m 4.947712,-33.04645 c 0.34395,-0.1323 0.42333,-0.58209 0.42333,-2.06376 0,-1.05833 -0.10583,-2.01083 -0.26458,-2.16958 -0.1323,-0.13229 -0.26459,-1.24354 -0.3175,-2.48708 -0.0529,-1.79917 -0.15875,-2.24896 -0.47625,-2.24896 -0.34396,0 -0.39688,0.68792 -0.47625,4.20687 -0.0529,2.8575 0.0265,4.31271 0.23812,4.55084 0.34396,0.42333 0.3175,0.42333 0.87313,0.21167 z m 7.35541,-9.26042 c 1.05834,-0.50271 2.46063,-1.21709 3.12209,-1.56104 0.66145,-0.34396 3.78354,-1.93146 6.93208,-3.4925 3.175,-1.56105 5.767916,-2.93688 5.767916,-3.04271 0,-0.3175 -1.29646,-0.23813 -2.751666,0.15875 -0.74083,0.21166 -2.11667,0.58208 -3.06917,0.82021 -2.2225,0.58208 -3.88937,1.03187 -6.35,1.71979 -1.95791,0.52916 -2.91041,0.79375 -6.45583,1.74625 -0.97896,0.29104 -1.85208,0.635 -1.93146,0.82021 -0.0529,0.15875 0.18521,0.79375 0.58208,1.40229 0.37042,0.58208 0.79375,1.37583 0.92605,1.71979 0.34395,0.89958 0.92604,0.84667 3.22791,-0.29104 z m -7.72583,-6.77334 c 0.55562,-0.47625 1.27,-1.08479 1.61396,-1.34937 0.34396,-0.23813 0.92604,-0.68792 1.29646,-0.97896 0.37041,-0.29104 2.69875,-2.06375 5.15937,-3.96875 2.48708,-1.87854 5.10646,-3.91583 5.82083,-4.49792 1.13771,-0.89958 7.27605,-5.68854 9.895416,-7.67291 0.44979,-0.37042 1.29646,-1.03188 1.82563,-1.48167 0.52916,-0.44979 2.54,-1.984374 4.41854,-3.413124 1.905002,-1.42875 3.571872,-2.725208 3.704162,-2.910416 0.15875,-0.15875 0.50271,-0.423334 0.79375,-0.608542 0.47625,-0.264583 0.47625,-0.291042 0.0794,-0.449792 -0.29103,-0.105833 -1.40228,0.264584 -2.91041,1.005417 -3.439582,1.666875 -8.175622,3.889375 -8.307912,3.889375 -0.10584,0 -2.778126,1.217083 -6.058956,2.778122 -2.51354,1.19063 -6.85271,3.22792 -8.46667,3.96875 -1.79917,0.82021 -5.74146,2.67229 -7.38187,3.43959 -0.74084,0.34395 -2.61938,1.21708 -4.153962,1.95791 -1.561042,0.74084 -2.963334,1.34938 -3.122084,1.34938 -0.873125,0 -0.582083,1.05833 1.137709,4.10104 0.3175,0.58208 1.058333,1.905 1.613958,2.91042 0.952499,1.7727 1.640419,2.77812 1.931459,2.77812 0.0529,0 0.55562,-0.39687 1.11125,-0.84667 z"
       id="path3730" />
  </g>
</svg>
